<svg width="8.5in" height="11in" viewBox="0 0 850 1100" xmlns="http://www.w3.org/2000/svg">
  <rect x="10" y="10" width="830" height="1080" fill="white" stroke="black" stroke-width="6"/>

  <!-- 1 inch grid -->
  <g stroke="#cccccc" stroke-width="1">
    <line x1="100" y1="0" x2="100" y2="1100"/>
    <line x1="200" y1="0" x2="200" y2="1100"/>
    <line x1="300" y1="0" x2="300" y2="1100"/>
    <line x1="400" y1="0" x2="400" y2="1100"/>
    <line x1="500" y1="0" x2="500" y2="1100"/>
    <line x1="600" y1="0" x2="600" y2="1100"/>
    <line x1="700" y1="0" x2="700" y2="1100"/>
    <line x1="800" y1="0" x2="800" y2="1100"/>

    <line x1="0" y1="100" x2="850" y2="100"/>
    <line x1="0" y1="200" x2="850" y2="200"/>
    <line x1="0" y1="300" x2="850" y2="300"/>
    <line x1="0" y1="400" x2="850" y2="400"/>
    <line x1="0" y1="500" x2="850" y2="500"/>
    <line x1="0" y1="600" x2="850" y2="600"/>
    <line x1="0" y1="700" x2="850" y2="700"/>
    <line x1="0" y1="800" x2="850" y2="800"/>
    <line x1="0" y1="900" x2="850" y2="900"/>
    <line x1="0" y1="1000" x2="850" y2="1000"/>
  </g>

  <!-- Fiducial corner markers -->
  <g fill="black">
    <rect x="25" y="25" width="60" height="60"/>
    <rect x="765" y="25" width="60" height="60"/>
    <rect x="25" y="1015" width="60" height="60"/>
    <rect x="765" y="1015" width="60" height="60"/>
  </g>

  <!-- Center placement area -->
  <rect x="125" y="175" width="600" height="700" rx="20" fill="none" stroke="#000000" stroke-width="4" stroke-dasharray="18 10"/>

  <text x="425" y="120" text-anchor="middle" font-size="28" font-family="Arial" font-weight="bold">
    ITEM PLACEMENT AREA
  </text>

  <text x="425" y="910" text-anchor="middle" font-size="18" font-family="Arial">
    Place all items flat inside the dashed box
  </text>

  <text x="425" y="950" text-anchor="middle" font-size="18" font-family="Arial">
    Print at 100% scale - Do NOT fit to page
  </text>

  <!-- Measurement labels -->
  <g font-family="Arial" font-size="12" fill="#555555">
    <text x="95" y="95">1in</text>
    <text x="195" y="95">2in</text>
    <text x="295" y="95">3in</text>
    <text x="395" y="95">4in</text>
    <text x="495" y="95">5in</text>
    <text x="595" y="95">6in</text>
    <text x="695" y="95">7in</text>
  </g>
</svg>